<svg width="44" height="43" viewBox="0 0 44 43" fill="none" xmlns="http://www.w3.org/2000/svg">
<path d="M39 23C39 26.7578 37.8857 30.4313 35.7979 33.5558C33.7102 36.6804 30.7428 39.1156 27.271 40.5537C23.7992 41.9918 19.9789 42.368 16.2933 41.6349C12.6076 40.9018 9.22217 39.0922 6.56497 36.435C3.90777 33.7778 2.0982 30.3924 1.36508 26.7067C0.63196 23.0211 1.00822 19.2008 2.44629 15.729C3.88435 12.2572 6.31963 9.28982 9.44417 7.20208C12.5687 5.11433 16.2422 4 20 4L20 23H39Z" stroke="black" stroke-width="2" stroke-linecap="square"/>
<path d="M23.0547 1C28.0938 1 32.9265 3.00178 36.4897 6.56497C40.0529 10.1282 42.0547 14.9609 42.0547 20L23.0547 20L23.0547 1Z" stroke="black" stroke-width="2" stroke-linecap="square"/>
</svg>
