<svg width="24" height="24" viewBox="0 0 24 24" fill="none" xmlns="http://www.w3.org/2000/svg">
<path d="M11.998 1.95312C8.13765 1.95312 5.00825 5.08713 5.00825 8.95312C5.00825 10.9121 5.55275 12.0791 6.75565 13.4841C6.81195 13.5501 7.01805 13.8011 7.06775 13.8591C7.43215 14.2851 7.59975 14.4861 7.73625 14.7851L4.29055 18.2341C3.90055 18.6251 3.90055 19.2811 4.29055 19.6721C4.68045 20.0621 5.33595 20.0621 5.72595 19.6721L19.7055 5.67212C20.0955 5.28112 20.0955 4.62513 19.7055 4.23413C19.5106 4.03913 19.2434 3.95312 18.9878 3.95312C18.7323 3.95312 18.4476 4.07613 18.2526 4.27213L17.6807 4.87312C16.3849 3.08912 14.2792 1.95312 11.998 1.95312ZM11.998 3.95312C13.7401 3.95312 15.3412 4.87413 16.2455 6.30713L9.18975 13.3481C9.00965 13.0711 8.89835 12.9201 8.62275 12.5981C8.56865 12.5351 8.30535 12.2321 8.25355 12.1721C7.33445 11.0981 7.00535 10.3691 7.00535 8.95312C7.00535 6.19213 9.24065 3.95312 11.998 3.95312ZM11.998 5.95312C10.3436 5.95312 9.00245 7.29612 9.00245 8.95312C9.00245 9.50513 9.44945 9.95312 10.0009 9.95312C10.5524 9.95312 10.9995 9.50513 10.9995 8.95312C10.9995 8.40112 11.4465 7.95312 11.998 7.95312C12.5495 7.95312 12.9965 7.50513 12.9965 6.95312C12.9965 6.40112 12.5495 5.95312 11.998 5.95312ZM16.9595 11.0151C16.7091 11.0661 16.4566 11.1921 16.3042 11.4221C16.1527 11.6511 16.0024 11.8681 15.7426 12.1721C15.6907 12.2321 15.4534 12.4841 15.3993 12.5471C14.4089 13.7041 13.9951 14.5701 13.9951 15.9531H12.9965C12.4451 15.9531 11.998 16.4011 11.998 16.9531C11.998 17.5051 12.4451 17.9531 12.9965 17.9531H13.9951C13.9951 19.0581 13.101 19.9531 11.998 19.9531C11.3376 19.9531 10.7962 19.7051 10.4378 19.2341C10.1035 18.7951 9.47225 18.7121 9.03365 19.0471C8.59495 19.3821 8.51215 19.9821 8.84635 20.4221C9.58855 21.3971 10.7238 21.9531 11.998 21.9531C14.2039 21.9531 15.9922 20.1621 15.9922 17.9531V16.9531V15.9531C15.9922 15.1401 16.2189 14.6881 16.9283 13.8591C16.978 13.8011 17.1841 13.5501 17.2404 13.4841C17.5491 13.1241 17.7835 12.8581 17.9893 12.5471C18.2939 12.0861 18.1681 11.4461 17.7084 11.1411C17.4786 10.9881 17.21 10.9651 16.9595 11.0151Z" fill="#2A343D"/>
</svg>
