<svg width="24" height="24" viewBox="0 0 24 24" fill="none" xmlns="http://www.w3.org/2000/svg">
<path d="M11.9971 1.95312C8.13107 1.95312 4.99707 5.08713 4.99707 8.95312C4.99707 10.9121 5.54207 12.0791 6.74707 13.4841C6.80307 13.5501 7.01008 13.8011 7.05908 13.8591C7.77008 14.6881 7.99707 15.1401 7.99707 15.9531V17.9531C7.99707 20.1621 9.78807 21.9531 11.9971 21.9531C14.2061 21.9531 15.9971 20.1621 15.9971 17.9531V15.9531C15.9971 15.1401 16.2241 14.6881 16.9351 13.8591C16.9841 13.8011 17.1911 13.5501 17.2471 13.4841C18.4521 12.0791 18.9971 10.9121 18.9971 8.95312C18.9971 5.08713 15.8631 1.95312 11.9971 1.95312ZM11.9971 3.95312C14.7581 3.95312 16.9971 6.19213 16.9971 8.95312C16.9971 10.3691 16.6671 11.0981 15.7471 12.1721C15.6951 12.2321 15.4571 12.4841 15.4031 12.5471C14.6901 13.3791 14.2751 14.1271 14.0941 14.9591C12.8261 14.9591 11.1651 14.9641 9.89706 14.9641C9.71606 14.1311 9.30406 13.3791 8.59106 12.5471C8.53706 12.4841 8.29907 12.2321 8.24707 12.1721C7.32707 11.0981 6.99707 10.3691 6.99707 8.95312C6.99707 6.19213 9.23607 3.95312 11.9971 3.95312ZM11.9971 5.95312C10.3401 5.95312 8.99707 7.29612 8.99707 8.95312C8.99707 9.50513 9.44507 9.95312 9.99707 9.95312C10.5491 9.95312 10.9971 9.50513 10.9971 8.95312C10.9971 8.40112 11.4451 7.95312 11.9971 7.95312C12.5491 7.95312 12.9971 7.50513 12.9971 6.95312C12.9971 6.40112 12.5491 5.95312 11.9971 5.95312ZM9.99707 16.9531C11.2331 16.9531 12.7611 16.9531 13.9971 16.9531V17.9531C13.9971 19.0581 13.1021 19.9531 11.9971 19.9531C10.8921 19.9531 9.99707 19.0581 9.99707 17.9531V16.9531Z" fill="white"/>
</svg>
