<svg width="25" height="25" viewBox="0 0 25 25" fill="none" xmlns="http://www.w3.org/2000/svg">
<path d="M12 16C14.2091 16 16 14.2091 16 12C16 9.79086 14.2091 8 12 8C9.79086 8 8 9.79086 8 12C8 14.2091 9.79086 16 12 16Z" stroke="black" stroke-width="1.5" stroke-linecap="square"/>
<path d="M19.0216 18.9656L18.5837 15.9253L21.4355 14.7845V9.71567L18.5847 8.57522L19.0227 5.53442L14.6329 3L12.2184 4.89979L9.80387 3L5.41413 5.53442L5.85204 8.57471L3 9.71567V14.7845L5.85304 15.9259L5.41521 18.9656L9.80495 21.5L12.2184 19.6011L14.6319 21.5L19.0216 18.9656Z" stroke="black" stroke-width="1.5" stroke-linecap="square"/>
</svg>
