<svg width="24" height="24" viewBox="0 0 24 24" fill="none" xmlns="http://www.w3.org/2000/svg">
<path fill-rule="evenodd" clip-rule="evenodd" d="M17.0202 9.91042L13.353 14.6435L10.1548 12.1312L7.35387 15.7716L6.16504 14.8569L9.88988 10.0157L13.0921 12.5311L15.8345 8.9917L17.0202 9.91042Z" fill="black"/>
<path fill-rule="evenodd" clip-rule="evenodd" d="M19.1679 3.75C18.5871 3.75 18.1162 4.22087 18.1162 4.80171C18.1162 5.38256 18.5871 5.85343 19.1679 5.85343C19.7488 5.85343 20.2196 5.38256 20.2196 4.80171C20.2196 4.22087 19.7488 3.75 19.1679 3.75ZM16.6162 4.80171C16.6162 3.39244 17.7587 2.25 19.1679 2.25C20.5772 2.25 21.7196 3.39244 21.7196 4.80171C21.7196 6.21099 20.5772 7.35343 19.1679 7.35343C17.7587 7.35343 16.6162 6.21099 16.6162 4.80171Z" fill="black"/>
<path fill-rule="evenodd" clip-rule="evenodd" d="M2.28027 3.03931H15.1654V4.53931H3.78027V20.25H19.4909V8.83911H20.9909V21.75H2.28027V3.03931Z" fill="black"/>
</svg>
