<svg width="15" height="15" viewBox="0 0 15 15" fill="none" xmlns="http://www.w3.org/2000/svg">
<path fill-rule="evenodd" clip-rule="evenodd" d="M1.88184 5.53076H13.1239V6.46826H1.88184V5.53076Z" fill="black"/>
<path fill-rule="evenodd" clip-rule="evenodd" d="M9.59912 7.78857H10.542V8.72607H9.59912V7.78857Z" fill="black"/>
<path fill-rule="evenodd" clip-rule="evenodd" d="M7.03394 7.78857H7.97679V8.72607H7.03394V7.78857Z" fill="black"/>
<path fill-rule="evenodd" clip-rule="evenodd" d="M4.46313 7.78857H5.40599V8.72607H4.46313V7.78857Z" fill="black"/>
<path fill-rule="evenodd" clip-rule="evenodd" d="M9.59912 10.0352H10.542V10.9727H9.59912V10.0352Z" fill="black"/>
<path fill-rule="evenodd" clip-rule="evenodd" d="M7.03394 10.0352H7.97679V10.9727H7.03394V10.0352Z" fill="black"/>
<path fill-rule="evenodd" clip-rule="evenodd" d="M4.46313 10.0352H5.40599V10.9727H4.46313V10.0352Z" fill="black"/>
<path fill-rule="evenodd" clip-rule="evenodd" d="M10.3069 1.25V4.08999H9.36938V1.25H10.3069Z" fill="black"/>
<path fill-rule="evenodd" clip-rule="evenodd" d="M5.63647 1.25V4.08999H4.69897V1.25H5.63647Z" fill="black"/>
<path fill-rule="evenodd" clip-rule="evenodd" d="M1.82861 2.16309H13.1724V13.7502H1.82861V2.16309ZM2.76611 3.10059V12.8127H12.2349V3.10059H2.76611Z" fill="black"/>
</svg>
