<svg width="15" height="15" viewBox="0 0 15 15" fill="none" xmlns="http://www.w3.org/2000/svg">
<path fill-rule="evenodd" clip-rule="evenodd" d="M6.44681 4L8.57437 6.93148L7.63981 8.55956C7.67304 8.65783 7.72644 8.79932 7.806 8.96772C7.96823 9.31107 8.23638 9.7603 8.65873 10.184C9.10616 10.6328 9.58093 10.927 9.94428 11.1088C10.125 11.1993 10.2767 11.2611 10.3813 11.2998L11.9997 10.365L15 12.5843L14.8249 12.898C14.3236 13.7965 13.6836 14.4385 12.7879 14.9414L12.704 14.9885L12.608 14.9929C9.96477 15.1142 7.69195 13.6725 6.1624 11.888C5.395 10.9927 4.80186 9.9975 4.43269 9.03962C4.06631 8.08897 3.90732 7.13984 4.05455 6.35019L4.06746 6.28097L4.10277 6.22011C4.60921 5.34718 5.26305 4.69646 6.12934 4.18678L6.44681 4ZM10.426 11.7443C10.3186 12.1374 10.3185 12.1373 10.3183 12.1373L10.3175 12.1371L10.3159 12.1366L10.3117 12.1354L10.2986 12.1316C10.2878 12.1284 10.273 12.1239 10.2545 12.118C10.2175 12.1062 10.1655 12.0888 10.1011 12.065C9.97221 12.0173 9.7926 11.9439 9.58155 11.8383C9.1604 11.6276 8.60787 11.2858 8.08408 10.7604C7.58111 10.2559 7.26366 9.72327 7.07163 9.31685C6.97541 9.11321 6.90998 8.93977 6.86805 8.81505C6.84707 8.75264 6.83192 8.70226 6.82171 8.66619C6.8166 8.64815 6.81273 8.63368 6.80997 8.62305L6.80666 8.61002L6.8056 8.60573L6.80522 8.60416L6.80507 8.60351C6.80504 8.60338 6.80494 8.60296 7.20022 8.50853L6.80494 8.60296L6.76754 8.44545L7.60681 6.98338L6.23019 5.08659C5.65551 5.47911 5.20751 5.95618 4.84186 6.56783C4.7529 7.14578 4.8671 7.90601 5.1907 8.74567C5.52433 9.61133 6.06767 10.5271 6.77863 11.3565C8.18594 12.9984 10.2002 14.2496 12.4745 14.1822C13.0909 13.8217 13.5523 13.3874 13.931 12.8064L11.9449 11.3373L10.482 12.1823L10.3183 12.1373L10.426 11.7443Z" fill="black"/>
</svg>
