<svg width="24" height="24" viewBox="0 0 24 24" fill="none" xmlns="http://www.w3.org/2000/svg">
<path fill-rule="evenodd" clip-rule="evenodd" d="M8.49512 6.50391H19.6372V8.00391H8.49512V6.50391Z" fill="black"/>
<path fill-rule="evenodd" clip-rule="evenodd" d="M3.25 7.19391C3.25 5.33256 4.76861 3.83252 6.63019 3.83252C8.49178 3.83252 10.0104 5.33256 10.0104 7.19391C10.0104 9.05526 8.49178 10.5553 6.63019 10.5553C4.76861 10.5553 3.25 9.05526 3.25 7.19391ZM6.63019 5.33252C5.58687 5.33252 4.75 6.17112 4.75 7.19391C4.75 8.21671 5.58687 9.05531 6.63019 9.05531C7.67351 9.05531 8.51039 8.21671 8.51039 7.19391C8.51039 6.17112 7.67351 5.33252 6.63019 5.33252Z" fill="black"/>
<path fill-rule="evenodd" clip-rule="evenodd" d="M15.5049 16.1167H4.36285V17.6167H15.5049V16.1167Z" fill="black"/>
<path fill-rule="evenodd" clip-rule="evenodd" d="M20.75 16.8062C20.75 14.9449 19.2314 13.4448 17.3698 13.4448C15.5082 13.4448 13.9896 14.9449 13.9896 16.8062C13.9896 18.6676 15.5082 20.1676 17.3698 20.1676C19.2314 20.1676 20.75 18.6676 20.75 16.8062ZM17.3698 14.9448C18.4131 14.9448 19.25 15.7834 19.25 16.8062C19.25 17.829 18.4131 18.6676 17.3698 18.6676C16.3265 18.6676 15.4896 17.829 15.4896 16.8062C15.4896 15.7834 16.3265 14.9448 17.3698 14.9448Z" fill="black"/>
</svg>
