<svg width="15" height="15" viewBox="0 0 15 15" fill="none" xmlns="http://www.w3.org/2000/svg">
<path fill-rule="evenodd" clip-rule="evenodd" d="M5.47729 6.75412C5.47729 5.63658 6.38292 4.73096 7.50046 4.73096C8.61748 4.73096 9.52299 5.63671 9.52299 6.75412C9.52299 7.87102 8.61736 8.77665 7.50046 8.77665C6.38305 8.77665 5.47729 7.87115 5.47729 6.75412ZM7.50046 5.66846C6.90069 5.66846 6.41479 6.15435 6.41479 6.75412C6.41479 7.35313 6.90056 7.83915 7.50046 7.83915C8.09959 7.83915 8.58549 7.35325 8.58549 6.75412C8.58549 6.15423 8.09947 5.66846 7.50046 5.66846Z" fill="black"/>
<path fill-rule="evenodd" clip-rule="evenodd" d="M7.49984 2.1875C5.19994 2.1875 3.2338 4.26733 3.30639 6.60873C3.35815 8.27843 4.42164 9.83494 5.55042 11.014C6.10676 11.5952 6.66107 12.0661 7.07663 12.3917C7.24526 12.5238 7.39043 12.6315 7.50284 12.7125C7.61475 12.6335 7.75893 12.5286 7.92626 12.3998C8.34128 12.0804 8.89493 11.617 9.45062 11.0411C10.5768 9.8741 11.6417 8.31741 11.6939 6.60894C11.7655 4.26723 9.79964 2.1875 7.49984 2.1875ZM7.49984 13.2812C7.244 13.674 7.24388 13.6739 7.24374 13.6738L7.24337 13.6736L7.24231 13.6729L7.23897 13.6707L7.22745 13.6631C7.21764 13.6565 7.20364 13.6472 7.18573 13.635C7.14989 13.6107 7.09836 13.5753 7.03333 13.5293C6.90332 13.4372 6.7191 13.3025 6.49842 13.1296C6.05776 12.7843 5.46806 12.2837 4.87322 11.6624C3.69965 10.4365 2.43215 8.66401 2.36934 6.63778C2.28102 3.78894 4.64958 1.25 7.49984 1.25C10.3502 1.25 12.718 3.78896 12.631 6.63757C12.5679 8.70082 11.3016 10.4731 10.1252 11.6921C9.52968 12.3093 8.93929 12.8032 8.49808 13.1428C8.27711 13.3128 8.09263 13.4449 7.96238 13.5351C7.89723 13.5803 7.84558 13.615 7.80964 13.6388C7.79166 13.6507 7.77761 13.6598 7.76775 13.6662L7.75615 13.6737L7.75277 13.6759L7.75169 13.6765L7.75131 13.6768C7.75117 13.6769 7.75104 13.677 7.49984 13.2812ZM7.49984 13.2812L7.75104 13.677L7.49656 13.8385L7.244 13.674L7.49984 13.2812Z" fill="black"/>
</svg>
