<svg width="15" height="15" viewBox="0 0 15 15" fill="none" xmlns="http://www.w3.org/2000/svg">
<path fill-rule="evenodd" clip-rule="evenodd" d="M7.40336 7.06885C6.57109 7.06885 5.89648 7.74326 5.89648 8.57635C5.89648 9.40871 6.57099 10.0832 7.40336 10.0832C8.23592 10.0832 8.91086 9.40852 8.91086 8.57635C8.91086 7.74345 8.23582 7.06885 7.40336 7.06885ZM4.95898 8.57635C4.95898 7.22569 6.05313 6.13135 7.40336 6.13135C8.7534 6.13135 9.84836 7.22549 9.84836 8.57635C9.84836 9.92667 8.7533 11.0207 7.40336 11.0207C6.05323 11.0207 4.95898 9.92648 4.95898 8.57635Z" fill="black"/>
<path fill-rule="evenodd" clip-rule="evenodd" d="M1.19967 8.37448C2.48406 5.67072 4.80372 3.98009 7.40307 3.979C7.40391 3.979 7.40474 3.979 7.40557 3.979V4.9165C7.40516 4.9165 7.40474 4.9165 7.40432 4.9165C7.40391 4.9165 7.40349 4.9165 7.40307 4.9165M7.40432 4.9165C9.56349 4.91705 11.5959 6.32174 12.7622 8.77675L12.9633 9.20015L13.8101 8.79788L13.609 8.37448C12.3246 5.67072 10.0049 3.98009 7.40557 3.979M7.40432 4.9165C5.24516 4.91705 3.2127 6.32174 2.04648 8.77675L1.84535 9.20015L0.998535 8.79788L1.19967 8.37448" fill="black"/>
</svg>
