<svg width="31" height="29" viewBox="0 0 31 29" fill="none" xmlns="http://www.w3.org/2000/svg">
<path fill-rule="evenodd" clip-rule="evenodd" d="M11.9877 19.1765C17.3675 19.1765 21.9656 19.9917 21.9656 23.2482C21.9656 26.5046 17.3981 27.3432 11.9877 27.3432C6.60643 27.3432 2.00977 26.5353 2.00977 23.2773C2.00977 20.0194 6.57581 19.1765 11.9877 19.1765Z" stroke="black" stroke-width="2.5" stroke-linecap="round" stroke-linejoin="round"/>
<path fill-rule="evenodd" clip-rule="evenodd" d="M11.9876 14.5288C8.45548 14.5288 5.59131 11.6661 5.59131 8.13405C5.59131 4.60197 8.45548 1.73926 11.9876 1.73926C15.5182 1.73926 18.3823 4.60197 18.3823 8.13405C18.3955 11.653 15.5517 14.5157 12.0328 14.5288H11.9876Z" stroke="black" stroke-width="2.5" stroke-linecap="round" stroke-linejoin="round"/>
<path d="M22.0378 12.8689C24.3726 12.5408 26.1708 10.5371 26.1751 8.11186C26.1751 5.72165 24.4324 3.73832 22.1472 3.36353" stroke="black" stroke-width="2.5" stroke-linecap="round" stroke-linejoin="round"/>
<path d="M25.1184 18.4844C27.3803 18.8212 28.9597 19.6146 28.9597 21.2479C28.9597 22.3723 28.2159 23.1015 27.0142 23.5579" stroke="black" stroke-width="2.5" stroke-linecap="round" stroke-linejoin="round"/>
</svg>
