<svg width="22" height="22" viewBox="0 0 22 22" fill="none" xmlns="http://www.w3.org/2000/svg">
<path fill-rule="evenodd" clip-rule="evenodd" d="M16.2777 12.8894C16.9524 12.8894 17.5188 13.4462 17.4156 14.1125C16.8103 18.0325 13.4545 20.9431 9.40717 20.9431C4.92928 20.9431 1.2998 17.3136 1.2998 12.8368C1.2998 9.14834 4.10191 5.71255 7.25665 4.9357C7.93454 4.76834 8.62928 5.24518 8.62928 5.94307C8.62928 10.6715 8.78823 11.8947 9.68612 12.5599C10.584 13.2252 11.6398 12.8894 16.2777 12.8894Z" stroke="black" stroke-width="1.5" stroke-linecap="round" stroke-linejoin="round"/>
<path fill-rule="evenodd" clip-rule="evenodd" d="M20.6921 8.9517C20.7458 5.9138 17.0142 1.01696 12.4669 1.10117C12.1132 1.10749 11.83 1.40222 11.8142 1.75485C11.6995 4.25275 11.8542 7.48959 11.9406 8.95696C11.9669 9.4138 12.3258 9.77275 12.7816 9.79906C14.29 9.88538 17.6448 10.0033 20.1069 9.63064C20.4416 9.58012 20.6869 9.28959 20.6921 8.9517Z" stroke="black" stroke-width="1.5" stroke-linecap="round" stroke-linejoin="round"/>
</svg>
