<svg width="24" height="24" viewBox="0 0 24 24" fill="none" xmlns="http://www.w3.org/2000/svg">
<path fill-rule="evenodd" clip-rule="evenodd" d="M13.0873 23.3333H18.7876C21.639 23.3333 23.9595 21.0128 23.9595 18.1592V5.17533C23.9595 2.32167 21.639 0 18.7876 0H13.1001C10.2465 0 7.9248 2.32167 7.9248 5.17533V6.26267C7.9248 6.74567 8.3168 7.13767 8.7998 7.13767C9.2828 7.13767 9.6748 6.74567 9.6748 6.26267V5.17533C9.6748 3.28533 11.2113 1.75 13.1001 1.75H18.7876C20.6741 1.75 22.2095 3.28533 22.2095 5.17533V18.1592C22.2095 20.048 20.6741 21.5833 18.7876 21.5833H13.0873C11.2066 21.5833 9.6748 20.0527 9.6748 18.172V17.0718C9.6748 16.5888 9.2828 16.1968 8.7998 16.1968C8.3168 16.1968 7.9248 16.5888 7.9248 17.0718V18.172C7.9248 21.0187 10.2418 23.3333 13.0873 23.3333Z" fill="#B61E7B"/>
<mask id="mask0_714_1751" style="mask-type:luminance" maskUnits="userSpaceOnUse" x="0" y="10" width="16" height="3">
<path fill-rule="evenodd" clip-rule="evenodd" d="M15.7979 10.7915H0.000135422V12.5415H15.7979V10.7915Z" fill="white"/>
</mask>
<g mask="url(#mask0_714_1751)">
<path fill-rule="evenodd" clip-rule="evenodd" d="M0.875018 12.5415H14.9229C15.4059 12.5415 15.7979 12.1495 15.7979 11.6665C15.7979 11.1835 15.4059 10.7915 14.9229 10.7915H0.875018C0.392018 10.7915 1.81198e-05 11.1835 1.81198e-05 11.6665C1.81198e-05 12.1495 0.392018 12.5415 0.875018 12.5415Z" fill="#B61E7B"/>
</g>
<mask id="mask1_714_1751" style="mask-type:luminance" maskUnits="userSpaceOnUse" x="0" y="7" width="6" height="9">
<path fill-rule="evenodd" clip-rule="evenodd" d="M5.16528 7.39111H3.8147e-05V15.9437H5.16528V7.39111Z" fill="white"/>
</mask>
<g mask="url(#mask1_714_1751)">
<path fill-rule="evenodd" clip-rule="evenodd" d="M4.29057 15.9437C4.51457 15.9437 4.73974 15.8585 4.91007 15.6858C5.25074 15.3428 5.24957 14.7898 4.90774 14.4492L2.11474 11.6667L4.90774 8.88532C5.24957 8.54466 5.25191 7.99166 4.91007 7.64866C4.56941 7.30566 4.0164 7.30566 3.6734 7.64632L0.257404 11.0472C0.0917373 11.2105 -0.000429153 11.4345 -0.000429153 11.6667C-0.000429153 11.8988 0.0917373 12.1228 0.257404 12.2862L3.6734 15.6882C3.84374 15.8585 4.06774 15.9437 4.29057 15.9437Z" fill="#B61E7B"/>
</g>
</svg>
