<svg width="18" height="20" viewBox="0 0 18 20" fill="none" xmlns="http://www.w3.org/2000/svg">
<mask id="mask0_290_183" style="mask-type:luminance" maskUnits="userSpaceOnUse" x="0" y="0" width="18" height="20">
<path fill-rule="evenodd" clip-rule="evenodd" d="M0 0.0117188H17.0522V19.8652H0V0.0117188Z" fill="white"/>
</mask>
<g mask="url(#mask0_290_183)">
<path fill-rule="evenodd" clip-rule="evenodd" d="M4.57307 1.51172C2.91607 1.51172 1.54007 2.85372 1.50107 4.50872V15.2277C1.46507 16.9287 2.80507 18.3287 4.49007 18.3657H12.5731C14.2421 18.3057 15.5631 16.9287 15.5521 15.2327V6.33972L10.9181 1.51172H4.58507H4.57307ZM4.58507 19.8657H4.45907C1.94707 19.8117 -0.0529317 17.7237 0.00106828 15.2117V4.49072C0.0600683 2.00972 2.10807 0.0117188 4.57007 0.0117188H4.58807H11.2371C11.4411 0.0117188 11.6361 0.0947188 11.7781 0.241719L16.8441 5.51872C16.9771 5.65772 17.0521 5.84472 17.0521 6.03772V15.2277C17.0681 17.7367 15.1121 19.7757 12.5991 19.8657H4.58507Z" fill="white"/>
</g>
<path fill-rule="evenodd" clip-rule="evenodd" d="M16.2976 6.984H13.5436C11.7126 6.979 10.2256 5.487 10.2256 3.659V0.75C10.2256 0.336 10.5616 0 10.9756 0C11.3896 0 11.7256 0.336 11.7256 0.75V3.659C11.7256 4.663 12.5416 5.481 13.5456 5.484H16.2976C16.7116 5.484 17.0476 5.82 17.0476 6.234C17.0476 6.648 16.7116 6.984 16.2976 6.984Z" fill="white"/>
<path fill-rule="evenodd" clip-rule="evenodd" d="M8.14258 14.7002C7.72858 14.7002 7.39258 14.3642 7.39258 13.9502V7.90918C7.39258 7.49518 7.72858 7.15918 8.14258 7.15918C8.55658 7.15918 8.89258 7.49518 8.89258 7.90918V13.9502C8.89258 14.3642 8.55658 14.7002 8.14258 14.7002Z" fill="white"/>
<path fill-rule="evenodd" clip-rule="evenodd" d="M8.14125 14.6985C7.94225 14.6985 7.75025 14.6195 7.61025 14.4775L5.26525 12.1235C4.97325 11.8295 4.97425 11.3545 5.26725 11.0625C5.56125 10.7705 6.03625 10.7705 6.32825 11.0645L8.14125 12.8865L9.95425 11.0645C10.2463 10.7705 10.7213 10.7705 11.0153 11.0625C11.3083 11.3545 11.3093 11.8295 11.0173 12.1235L8.67225 14.4775C8.53225 14.6195 8.34025 14.6985 8.14125 14.6985Z" fill="white"/>
</svg>
