<svg width="24" height="26" viewBox="0 0 24 26" fill="none" xmlns="http://www.w3.org/2000/svg">
<mask id="mask0_714_1865" style="mask-type:luminance" maskUnits="userSpaceOnUse" x="0" y="0" width="24" height="26">
<path fill-rule="evenodd" clip-rule="evenodd" d="M0.25 0.25H23.5525V25.2879H0.25V0.25Z" fill="white" stroke="white" stroke-width="0.5"/>
</mask>
<g mask="url(#mask0_714_1865)">
<path fill-rule="evenodd" clip-rule="evenodd" d="M6.53589 18.9067C6.8126 18.9067 7.08931 18.9417 7.35997 19.0142C8.17681 19.2341 8.8861 19.7803 9.3066 20.5138C9.57968 20.9741 9.73073 21.5118 9.73556 22.0604C9.73556 22.8458 10.3663 23.4754 11.1421 23.4754H12.6561C13.4282 23.4754 14.059 22.8495 14.0626 22.0773C14.0578 21.2242 14.3913 20.4135 15.0015 19.8033C15.6032 19.2015 16.4442 18.8402 17.2852 18.8644C17.8362 18.8777 18.3667 19.0263 18.8343 19.2921C19.5073 19.6776 20.3665 19.448 20.7556 18.7834L21.5579 17.4458C21.7367 17.1377 21.7887 16.751 21.6932 16.3945C21.599 16.0381 21.3621 15.7288 21.0431 15.5463C20.2964 15.1161 19.7635 14.4225 19.5424 13.5912C19.3237 12.7756 19.4433 11.885 19.8699 11.1516C20.1478 10.6683 20.555 10.261 21.0431 9.98071C21.6981 9.59767 21.9276 8.74096 21.547 8.07396C21.5313 8.04737 21.5168 8.01958 21.5047 7.99058L20.7966 6.76292C20.4112 6.09229 19.5533 5.8615 18.8802 6.24454C18.1528 6.67471 17.2876 6.79796 16.4563 6.57925C15.6262 6.36417 14.9302 5.83854 14.4964 5.09662C14.2185 4.63262 14.0674 4.0925 14.0626 3.54271C14.0735 3.12946 13.9285 2.7585 13.6651 2.48662C13.4028 2.21596 13.0343 2.0625 12.6561 2.0625H11.1421C10.7675 2.0625 10.4171 2.20871 10.1524 2.47212C9.88902 2.73675 9.74522 3.08837 9.74764 3.46296C9.72227 5.22954 8.27831 6.65175 6.52985 6.65175C5.96918 6.64571 5.42906 6.49467 4.96023 6.21433C4.30168 5.83975 3.44135 6.07054 3.05589 6.74117L2.23785 8.08604C1.86327 8.73612 2.09285 9.59525 2.75985 9.98312C3.74948 10.5559 4.36693 11.624 4.36693 12.7695C4.36693 13.915 3.74948 14.982 2.75743 15.556C2.09406 15.9402 1.86448 16.7945 2.24873 17.4591L3.01118 18.7738C3.19968 19.1133 3.50781 19.3586 3.86427 19.4589C4.21952 19.558 4.61102 19.5157 4.93727 19.3344C5.41698 19.0529 5.97523 18.9067 6.53589 18.9067ZM12.6561 25.2879H11.1421C9.36702 25.2879 7.92306 23.8451 7.92306 22.0701C7.92064 21.8514 7.85781 21.6242 7.7406 21.4272C7.55089 21.0962 7.24398 20.8593 6.88993 20.7651C6.53831 20.6708 6.15285 20.7228 5.83627 20.9065C5.07743 21.3294 4.18448 21.4321 3.36764 21.2025C2.55202 20.9717 1.84756 20.411 1.43431 19.6679L0.679101 18.3665C-0.204191 16.8344 0.321434 14.8708 1.85118 13.9863C2.28498 13.7362 2.55443 13.2698 2.55443 12.7695C2.55443 12.2693 2.28498 11.8017 1.85118 11.5515C0.320226 10.6622 -0.204191 8.69383 0.677892 7.16167L1.49714 5.81679C2.36835 4.30154 4.33793 3.76746 5.87373 4.64954C6.08277 4.774 6.30993 4.83683 6.54073 4.83925C7.29352 4.83925 7.92306 4.21817 7.93514 3.4545C7.93031 2.61229 8.2626 1.80392 8.86798 1.19371C9.47577 0.584708 10.2829 0.25 11.1421 0.25H12.6561C13.5213 0.25 14.3623 0.60525 14.9652 1.22271C15.567 1.84379 15.8993 2.69567 15.8739 3.55963C15.8763 3.75417 15.9404 3.97892 16.0564 4.17588C16.2485 4.50213 16.5518 4.73171 16.9119 4.82596C17.2719 4.91538 17.6489 4.86704 17.9691 4.67733C19.5158 3.79404 21.4842 4.32329 22.3675 5.85787L23.1203 7.16167C23.1396 7.19671 23.1565 7.23054 23.171 7.26558C23.9709 8.77721 23.4369 10.6803 21.9506 11.5491C21.7343 11.6736 21.5591 11.8476 21.4383 12.0578C21.251 12.3829 21.199 12.7695 21.2933 13.1248C21.3899 13.4873 21.6207 13.7882 21.9458 13.9742C22.6792 14.396 23.2266 15.1065 23.4453 15.9269C23.664 16.7462 23.5444 17.6355 23.1179 18.369L22.3155 19.7054C21.4322 21.223 19.4639 21.7487 17.9329 20.8642C17.7287 20.747 17.4931 20.6829 17.2586 20.6769H17.2514C16.9022 20.6769 16.5433 20.8255 16.2823 21.0853C16.0177 21.3499 15.8727 21.7027 15.8751 22.0773C15.8666 23.8524 14.4227 25.2879 12.6561 25.2879Z" fill="black"/>
<path d="M7.35997 19.0142L7.42497 18.7728L7.42466 18.7727L7.35997 19.0142ZM9.3066 20.5138L9.08969 20.6381L9.09158 20.6413L9.3066 20.5138ZM9.73556 22.0604H9.98557L9.98555 22.0582L9.73556 22.0604ZM14.0626 22.0773L14.3126 22.0785L14.3126 22.0759L14.0626 22.0773ZM17.2852 18.8644L17.278 19.1143L17.2792 19.1143L17.2852 18.8644ZM18.8343 19.2921L18.9586 19.0752L18.9579 19.0748L18.8343 19.2921ZM20.7556 18.7834L20.5412 18.6548L20.5398 18.6571L20.7556 18.7834ZM21.5579 17.4458L21.7723 17.5744L21.7741 17.5713L21.5579 17.4458ZM21.6932 16.3945L21.4515 16.4584L21.4517 16.4592L21.6932 16.3945ZM21.0431 15.5463L20.9184 15.7629L20.919 15.7633L21.0431 15.5463ZM19.5424 13.5912L19.784 13.5269L19.7839 13.5265L19.5424 13.5912ZM19.8699 11.1516L20.086 11.2773L20.0866 11.2762L19.8699 11.1516ZM21.0431 9.98071L21.1676 10.1975L21.1694 10.1965L21.0431 9.98071ZM21.547 8.07396L21.7642 7.95004L21.7622 7.94678L21.547 8.07396ZM21.5047 7.99058L21.7355 7.89443L21.7293 7.8796L21.7213 7.86568L21.5047 7.99058ZM20.7966 6.76292L20.5799 6.8875L20.5801 6.88782L20.7966 6.76292ZM18.8802 6.24454L18.7565 6.02724L18.753 6.02935L18.8802 6.24454ZM16.4563 6.57925L16.5199 6.33747L16.519 6.33724L16.4563 6.57925ZM14.4964 5.09662L14.7122 4.97043L14.7109 4.96816L14.4964 5.09662ZM14.0626 3.54271L13.8125 3.53613L13.8126 3.54491L14.0626 3.54271ZM13.6651 2.48662L13.4855 2.66057L13.4855 2.66059L13.6651 2.48662ZM10.1524 2.47212L9.97606 2.29494L9.97525 2.29575L10.1524 2.47212ZM9.74764 3.46296L9.99767 3.46655L9.99764 3.46135L9.74764 3.46296ZM6.52985 6.65175L6.52716 6.90175H6.52985V6.65175ZM4.96023 6.21433L5.08855 5.99971L5.08383 5.99703L4.96023 6.21433ZM3.05589 6.74117L3.26955 6.87113L3.27264 6.86575L3.05589 6.74117ZM2.23785 8.08604L2.0242 7.95609L2.02124 7.96123L2.23785 8.08604ZM2.75985 9.98312L2.63417 10.1992L2.63462 10.1995L2.75985 9.98312ZM2.75743 15.556L2.63224 15.3396L2.63213 15.3396L2.75743 15.556ZM2.24873 17.4591L2.0323 17.5842L2.03246 17.5845L2.24873 17.4591ZM3.01118 18.7738L3.2298 18.6524L3.22745 18.6483L3.01118 18.7738ZM3.86427 19.4589L3.79656 19.6995L3.7971 19.6997L3.86427 19.4589ZM4.93727 19.3344L5.05871 19.553L5.06381 19.55L4.93727 19.3344ZM7.92306 22.0701H8.17307L8.17304 22.0673L7.92306 22.0701ZM7.7406 21.4272L7.52366 21.5516L7.52576 21.5551L7.7406 21.4272ZM6.88993 20.7651L6.82521 21.0066L6.82562 21.0067L6.88993 20.7651ZM5.83627 20.9065L5.95799 21.1249L5.96172 21.1227L5.83627 20.9065ZM3.36764 21.2025L3.29957 21.4431L3.3 21.4432L3.36764 21.2025ZM1.43431 19.6679L1.65283 19.5464L1.65054 19.5424L1.43431 19.6679ZM0.679101 18.3665L0.462514 18.4914L0.462872 18.492L0.679101 18.3665ZM1.85118 13.9863L1.72631 13.7698L1.72605 13.7699L1.85118 13.9863ZM1.85118 11.5515L1.72561 11.7677L1.72631 11.7681L1.85118 11.5515ZM0.677892 7.16167L0.464322 7.03157L0.461232 7.03693L0.677892 7.16167ZM1.49714 5.81679L1.71072 5.94689L1.71387 5.9414L1.49714 5.81679ZM5.87373 4.64954L6.00163 4.43471L5.99824 4.43275L5.87373 4.64954ZM6.54073 4.83925L6.53811 5.08925H6.54073V4.83925ZM7.93514 3.4545L8.18517 3.45846L8.18514 3.45307L7.93514 3.4545ZM8.86798 1.19371L8.69102 1.01711L8.6905 1.01764L8.86798 1.19371ZM14.9652 1.22271L15.1448 1.04875L15.1441 1.04804L14.9652 1.22271ZM15.8739 3.55963L15.6238 3.55228L15.6239 3.56273L15.8739 3.55963ZM16.0564 4.17588L16.2718 4.04902L16.2718 4.049L16.0564 4.17588ZM16.9119 4.82596L16.8485 5.06783L16.8516 5.06859L16.9119 4.82596ZM17.9691 4.67733L17.8451 4.46021L17.8417 4.46225L17.9691 4.67733ZM22.3675 5.85787L22.1508 5.98259L22.151 5.98288L22.3675 5.85787ZM23.1203 7.16167L23.3392 7.04087L23.3368 7.03666L23.1203 7.16167ZM23.171 7.26558L22.94 7.36117L22.9445 7.37208L22.9501 7.38252L23.171 7.26558ZM21.9506 11.5491L22.0753 11.7658L22.0768 11.765L21.9506 11.5491ZM21.4383 12.0578L21.6549 12.1826L21.655 12.1824L21.4383 12.0578ZM21.2933 13.1248L21.0516 13.1889L21.0517 13.1892L21.2933 13.1248ZM21.9458 13.9742L22.0704 13.7575L22.07 13.7573L21.9458 13.9742ZM23.4453 15.9269L23.2037 15.9913L23.2038 15.9914L23.4453 15.9269ZM23.1179 18.369L23.3322 18.4977L23.334 18.4946L23.1179 18.369ZM22.3155 19.7054L22.1012 19.5767L22.0994 19.5796L22.3155 19.7054ZM17.9329 20.8642L18.058 20.6477L18.0573 20.6473L17.9329 20.8642ZM17.2586 20.6769L17.2651 20.4269H17.2586V20.6769ZM16.2823 21.0853L16.1059 20.9081L16.1055 20.9085L16.2823 21.0853ZM15.8751 22.0773L16.1251 22.0785L16.1251 22.0757L15.8751 22.0773ZM6.53589 18.9067V19.1567C6.79145 19.1567 7.04638 19.189 7.29529 19.2557L7.35997 19.0142L7.42466 18.7727C7.13224 18.6944 6.83375 18.6567 6.53589 18.6567V18.9067ZM7.35997 19.0142L7.29498 19.2556C8.04773 19.4583 8.70232 19.9624 9.08972 20.6381L9.3066 20.5138L9.52348 20.3894C9.06988 19.5982 8.30588 19.01 7.42497 18.7728L7.35997 19.0142ZM9.3066 20.5138L9.09158 20.6413C9.34202 21.0635 9.48112 21.5579 9.48557 22.0626L9.73556 22.0604L9.98555 22.0582C9.98033 21.4657 9.81734 20.8848 9.52162 20.3862L9.3066 20.5138ZM9.73556 22.0604H9.48556C9.48556 22.9831 10.2274 23.7254 11.1421 23.7254V23.4754V23.2254C10.5052 23.2254 9.98556 22.7086 9.98556 22.0604H9.73556ZM11.1421 23.4754V23.7254H12.6561V23.4754V23.2254H11.1421V23.4754ZM12.6561 23.4754V23.7254C13.5654 23.7254 14.3083 22.9887 14.3126 22.0785L14.0626 22.0773L13.8126 22.0762C13.8096 22.7102 13.291 23.2254 12.6561 23.2254V23.4754ZM14.0626 22.0773L14.3126 22.0759C14.3081 21.2901 14.6149 20.5433 15.1783 19.98L15.0015 19.8033L14.8247 19.6265C14.1676 20.2836 13.8074 21.1584 13.8126 22.0787L14.0626 22.0773ZM15.0015 19.8033L15.1783 19.98C15.7355 19.4228 16.5115 19.0922 17.278 19.1143L17.2852 18.8644L17.2924 18.6145C16.377 18.5882 15.4709 18.9802 14.8247 19.6265L15.0015 19.8033ZM17.2852 18.8644L17.2792 19.1143C17.789 19.1266 18.2791 19.2641 18.7108 19.5095L18.8343 19.2921L18.9579 19.0748C18.4543 18.7885 17.8835 18.6287 17.2913 18.6144L17.2852 18.8644ZM18.8343 19.2921L18.7101 19.5091C19.5017 19.9625 20.5127 19.6931 20.9713 18.9097L20.7556 18.7834L20.5398 18.6571C20.2202 19.203 19.513 19.3927 18.9586 19.0752L18.8343 19.2921ZM20.7556 18.7834L20.9699 18.912L21.7723 17.5744L21.5579 17.4458L21.3435 17.3172L20.5412 18.6548L20.7556 18.7834ZM21.5579 17.4458L21.7741 17.5713C21.9868 17.2048 22.0471 16.7497 21.9347 16.3299L21.6932 16.3945L21.4517 16.4592C21.5302 16.7523 21.4867 17.0705 21.3417 17.3203L21.5579 17.4458ZM21.6932 16.3945L21.9349 16.3306C21.8237 15.9098 21.5447 15.5452 21.1673 15.3293L21.0431 15.5463L20.919 15.7633C21.1796 15.9123 21.3743 16.1663 21.4515 16.4584L21.6932 16.3945ZM21.0431 15.5463L21.1679 15.3297C20.4786 14.9326 19.9879 14.2937 19.784 13.5269L19.5424 13.5912L19.3008 13.6555C19.5391 14.5514 20.1142 15.2997 20.9184 15.7629L21.0431 15.5463ZM19.5424 13.5912L19.7839 13.5265C19.5825 12.7755 19.6927 11.9535 20.086 11.2773L19.8699 11.1516L19.6537 11.0259C19.1939 11.8166 19.0649 12.7756 19.3009 13.656L19.5424 13.5912ZM19.8699 11.1516L20.0866 11.2762C20.3424 10.8314 20.7177 10.4559 21.1676 10.1975L21.0431 9.98071L20.9186 9.76391C20.3923 10.0662 19.9532 10.5051 19.6531 11.027L19.8699 11.1516ZM21.0431 9.98071L21.1694 10.1965C21.9434 9.74379 22.2122 8.73522 21.7641 7.95005L21.547 8.07396L21.3299 8.19787C21.6431 8.7467 21.4527 9.45154 20.9169 9.76491L21.0431 9.98071ZM21.547 8.07396L21.7622 7.94678C21.751 7.92771 21.7421 7.9104 21.7355 7.89443L21.5047 7.99058L21.274 8.08674C21.2915 8.12877 21.3116 8.16704 21.3318 8.20114L21.547 8.07396ZM21.5047 7.99058L21.7213 7.86568L21.0132 6.63801L20.7966 6.76292L20.5801 6.88782L21.2882 8.11549L21.5047 7.99058ZM20.7966 6.76292L21.0134 6.63834C20.5588 5.8475 19.5484 5.57663 18.7566 6.02727L18.8802 6.24454L19.0039 6.46182C19.5582 6.14637 20.2635 6.33708 20.5799 6.8875L20.7966 6.76292ZM18.8802 6.24454L18.753 6.02935C18.0831 6.4255 17.2866 6.53919 16.5199 6.33748L16.4563 6.57925L16.3927 6.82102C17.2886 7.05673 18.2225 6.92392 19.0075 6.45973L18.8802 6.24454ZM16.4563 6.57925L16.519 6.33724C15.7532 6.13883 15.1124 5.65485 14.7122 4.97044L14.4964 5.09662L14.2806 5.22281C14.748 6.02224 15.4991 6.5895 16.3936 6.82126L16.4563 6.57925ZM14.4964 5.09662L14.7109 4.96816C14.4561 4.5429 14.317 4.04645 14.3126 3.54051L14.0626 3.54271L13.8126 3.54491C13.8178 4.13855 13.9808 4.72235 14.2819 5.22508L14.4964 5.09662ZM14.0626 3.54271L14.3125 3.54928C14.3251 3.07189 14.1569 2.63495 13.8446 2.31266L13.6651 2.48662L13.4855 2.66059C13.7001 2.88205 13.8219 3.18703 13.8127 3.53613L14.0626 3.54271ZM13.6651 2.48662L13.8446 2.31268C13.5344 1.99247 13.1007 1.8125 12.6561 1.8125V2.0625V2.3125C12.9679 2.3125 13.2713 2.43945 13.4855 2.66057L13.6651 2.48662ZM12.6561 2.0625V1.8125H11.1421V2.0625V2.3125H12.6561V2.0625ZM11.1421 2.0625V1.8125C10.7008 1.8125 10.2871 1.98531 9.97606 2.29494L10.1524 2.47212L10.3288 2.64931C10.547 2.43211 10.8342 2.3125 11.1421 2.3125V2.0625ZM10.1524 2.47212L9.97525 2.29575C9.6647 2.60773 9.4948 3.02347 9.49765 3.46457L9.74764 3.46296L9.99764 3.46135C9.99565 3.15328 10.1133 2.86577 10.3296 2.6485L10.1524 2.47212ZM9.74764 3.46296L9.49767 3.45937C9.47424 5.09009 8.14084 6.40175 6.52985 6.40175V6.65175V6.90175C8.41578 6.90175 9.97029 5.36899 9.99762 3.46655L9.74764 3.46296ZM6.52985 6.65175L6.53254 6.40176C6.01516 6.39619 5.51853 6.25688 5.08852 5.99977L4.96023 6.21433L4.83193 6.4289C5.33959 6.73245 5.92321 6.89523 6.52716 6.90174L6.52985 6.65175ZM4.96023 6.21433L5.08383 5.99703C4.30505 5.55405 3.29284 5.82724 2.83914 6.61659L3.05589 6.74117L3.27264 6.86575C3.58986 6.31384 4.29832 6.12545 4.83662 6.43164L4.96023 6.21433ZM3.05589 6.74117L2.8423 6.61125L2.02426 7.95612L2.23785 8.08604L2.45144 8.21596L3.26948 6.87109L3.05589 6.74117ZM2.23785 8.08604L2.02124 7.96123C1.57661 8.73286 1.85042 9.74347 2.63417 10.1992L2.75985 9.98312L2.88553 9.76701C2.33528 9.44703 2.14992 8.73939 2.45446 8.21086L2.23785 8.08604ZM2.75985 9.98312L2.63462 10.1995C3.54714 10.7276 4.11693 11.7134 4.11693 12.7695H4.36693H4.61693C4.61693 11.5347 3.95181 10.3841 2.88508 9.76675L2.75985 9.98312ZM4.36693 12.7695H4.11693C4.11693 13.8255 3.54733 14.8101 2.63224 15.3396L2.75743 15.556L2.88263 15.7724C3.95162 15.1539 4.61693 14.0046 4.61693 12.7695H4.36693ZM2.75743 15.556L2.63213 15.3396C1.84968 15.7928 1.57878 16.7998 2.0323 17.5842L2.24873 17.4591L2.46515 17.3339C2.15017 16.7892 2.33843 16.0876 2.88274 15.7723L2.75743 15.556ZM2.24873 17.4591L2.03246 17.5845L2.79492 18.8992L3.01118 18.7738L3.22745 18.6483L2.46499 17.3337L2.24873 17.4591ZM3.01118 18.7738L2.79261 18.8951C3.01235 19.2909 3.37371 19.5806 3.79656 19.6995L3.86427 19.4589L3.93198 19.2182C3.6419 19.1366 3.38702 18.9357 3.22976 18.6524L3.01118 18.7738ZM3.86427 19.4589L3.7971 19.6997C4.21424 19.816 4.67364 19.7669 5.05868 19.553L4.93727 19.3344L4.81586 19.1159C4.5484 19.2645 4.2248 19.2999 3.93143 19.2181L3.86427 19.4589ZM4.93727 19.3344L5.06381 19.55C5.50359 19.2919 6.01787 19.1567 6.53589 19.1567V18.9067V18.6567C5.93258 18.6567 5.33036 18.8138 4.81073 19.1188L4.93727 19.3344ZM12.6561 25.2879V25.0379H11.1421V25.2879V25.5379H12.6561V25.2879ZM11.1421 25.2879V25.0379C9.50497 25.0379 8.17306 23.7069 8.17306 22.0701H7.92306H7.67306C7.67306 23.9833 9.22907 25.5379 11.1421 25.5379V25.2879ZM7.92306 22.0701L8.17304 22.0673C8.17014 21.8042 8.09503 21.534 7.95544 21.2994L7.7406 21.4272L7.52576 21.5551C7.62059 21.7144 7.67115 21.8985 7.67307 22.0728L7.92306 22.0701ZM7.7406 21.4272L7.95752 21.303C7.73553 20.9156 7.3745 20.6354 6.95425 20.5235L6.88993 20.7651L6.82562 21.0067C7.11345 21.0833 7.36625 21.2768 7.52369 21.5515L7.7406 21.4272ZM6.88993 20.7651L6.95466 20.5236C6.53824 20.412 6.0844 20.4735 5.71081 20.6902L5.83627 20.9065L5.96172 21.1227C6.2213 20.9721 6.53838 20.9297 6.82521 21.0066L6.88993 20.7651ZM5.83627 20.9065L5.71456 20.6881C5.01316 21.079 4.18824 21.1735 3.43529 20.9618L3.36764 21.2025L3.3 21.4432C4.18071 21.6907 5.14171 21.5798 5.95797 21.1248L5.83627 20.9065ZM3.36764 21.2025L3.43571 20.9619C2.68467 20.7494 2.03404 20.232 1.6528 19.5464L1.43431 19.6679L1.21582 19.7894C1.66108 20.5901 2.41937 21.194 3.29957 21.4431L3.36764 21.2025ZM1.43431 19.6679L1.65054 19.5424L0.895329 18.2411L0.679101 18.3665L0.462872 18.492L1.21808 19.7934L1.43431 19.6679ZM0.679101 18.3665L0.895687 18.2417C0.0812192 16.8289 0.566119 15.0181 1.97632 14.2028L1.85118 13.9863L1.72605 13.7699C0.0767485 14.7235 -0.489601 16.8399 0.462514 18.4914L0.679101 18.3665ZM1.85118 13.9863L1.97606 14.2029C2.48723 13.9082 2.80443 13.3592 2.80443 12.7695H2.55443H2.30443C2.30443 13.1804 2.08272 13.5642 1.72631 13.7698L1.85118 13.9863ZM2.55443 12.7695H2.80443C2.80443 12.1801 2.48744 11.6298 1.97606 11.335L1.85118 11.5515L1.72631 11.7681C2.08251 11.9735 2.30443 12.3585 2.30443 12.7695H2.55443ZM1.85118 11.5515L1.97676 11.3354C0.564929 10.5152 0.0811294 8.6993 0.894552 7.2864L0.677892 7.16167L0.461232 7.03693C-0.489512 8.68836 0.0755228 10.8092 1.72561 11.7677L1.85118 11.5515ZM0.677892 7.16167L0.891397 7.29173L1.71065 5.94685L1.49714 5.81679L1.28364 5.68673L0.464387 7.03161L0.677892 7.16167ZM1.49714 5.81679L1.71387 5.9414C2.51584 4.54658 4.33234 4.05254 5.74921 4.86633L5.87373 4.64954L5.99824 4.43275C4.34353 3.48237 2.22086 4.0565 1.28041 5.69218L1.49714 5.81679ZM5.87373 4.64954L5.74583 4.86435C5.99234 5.01112 6.26266 5.08635 6.53811 5.08924L6.54073 4.83925L6.54334 4.58926C6.35721 4.58732 6.17319 4.53688 6.00162 4.43473L5.87373 4.64954ZM6.54073 4.83925V5.08925C7.43164 5.08925 8.17089 4.35704 8.18511 3.45846L7.93514 3.4545L7.68517 3.45054C7.67522 4.0793 7.1554 4.58925 6.54073 4.58925V4.83925ZM7.93514 3.4545L8.18514 3.45307C8.18069 2.67844 8.48608 1.93362 9.04545 1.36978L8.86798 1.19371L8.6905 1.01764C8.03912 1.67421 7.67993 2.54614 7.68515 3.45593L7.93514 3.4545ZM8.86798 1.19371L9.04493 1.37031C9.60584 0.808278 10.3494 0.5 11.1421 0.5V0.25V0C10.2165 0 9.34569 0.361139 8.69102 1.01711L8.86798 1.19371ZM11.1421 0.25V0.5H12.6561V0.25V0H11.1421V0.25ZM12.6561 0.25V0.5C13.4538 0.5 14.2304 0.828008 14.7864 1.39737L14.9652 1.22271L15.1441 1.04804C14.4942 0.382492 13.5887 0 12.6561 0V0.25ZM14.9652 1.22271L14.7857 1.39667C15.3407 1.96955 15.6474 2.75614 15.624 3.55229L15.8739 3.55963L16.1238 3.56696C16.1512 2.63519 15.7932 1.71803 15.1448 1.04875L14.9652 1.22271ZM15.8739 3.55963L15.6239 3.56273C15.6269 3.80514 15.7051 4.07214 15.8409 4.30275L16.0564 4.17588L16.2718 4.049C16.1756 3.8857 16.1257 3.7032 16.1239 3.55652L15.8739 3.55963ZM16.0564 4.17588L15.8409 4.30273C16.0662 4.68528 16.4239 4.95665 16.8485 5.06781L16.9119 4.82596L16.9752 4.58411C16.6797 4.50677 16.4307 4.31897 16.2718 4.04902L16.0564 4.17588ZM16.9119 4.82596L16.8516 5.06859C17.2722 5.17302 17.717 5.11729 18.0966 4.89242L17.9691 4.67733L17.8417 4.46225C17.5809 4.61679 17.2717 4.65773 16.9721 4.58333L16.9119 4.82596ZM17.9691 4.67733L18.0931 4.89443C19.5212 4.07887 21.3368 4.56838 22.1508 5.98259L22.3675 5.85787L22.5841 5.73316C21.6316 4.0782 19.5104 3.50921 17.8452 4.46024L17.9691 4.67733ZM22.3675 5.85787L22.151 5.98288L22.9038 7.28667L23.1203 7.16167L23.3368 7.03666L22.584 5.73287L22.3675 5.85787ZM23.1203 7.16167L22.9014 7.28244C22.9177 7.31194 22.9301 7.33713 22.94 7.36117L23.171 7.26558L23.402 7.17C23.383 7.12396 23.3616 7.08148 23.3392 7.0409L23.1203 7.16167ZM23.171 7.26558L22.9501 7.38252C23.6876 8.77623 23.1946 10.5324 21.8244 11.3333L21.9506 11.5491L22.0768 11.765C23.6791 10.8283 24.2543 8.77819 23.392 7.14865L23.171 7.26558ZM21.9506 11.5491L21.8259 11.3324C21.5725 11.4783 21.365 11.6836 21.2215 11.9333L21.4383 12.0578L21.655 12.1824C21.7532 12.0116 21.8961 11.8689 22.0753 11.7658L21.9506 11.5491ZM21.4383 12.0578L21.2217 11.933C21.0019 12.3143 20.9402 12.7688 21.0516 13.1889L21.2933 13.1248L21.5349 13.0607C21.4579 12.7703 21.5 12.4514 21.6549 12.1826L21.4383 12.0578ZM21.2933 13.1248L21.0517 13.1892C21.1655 13.6159 21.4383 13.9718 21.8216 14.1912L21.9458 13.9742L22.07 13.7573C21.8031 13.6045 21.6144 13.3587 21.5348 13.0604L21.2933 13.1248ZM21.9458 13.9742L21.8212 14.191C22.4971 14.5796 23.0022 15.2354 23.2037 15.9913L23.4453 15.9269L23.6869 15.8625C23.451 14.9775 22.8614 14.2123 22.0704 13.7575L21.9458 13.9742ZM23.4453 15.9269L23.2038 15.9914C23.4053 16.7462 23.2949 17.5672 22.9017 18.2433L23.1179 18.369L23.334 18.4946C23.7938 17.7038 23.9228 16.7461 23.6868 15.8624L23.4453 15.9269ZM23.1179 18.369L22.9035 18.2403L22.1012 19.5767L22.3155 19.7054L22.5299 19.8341L23.3322 18.4976L23.1179 18.369ZM22.3155 19.7054L22.0994 19.5796C21.2856 20.978 19.4699 21.4634 18.058 20.6477L17.9329 20.8642L17.8078 21.0806C19.4578 22.0339 21.5788 21.4681 22.5316 19.8311L22.3155 19.7054ZM17.9329 20.8642L18.0573 20.6473C17.816 20.5088 17.5396 20.434 17.2651 20.427L17.2586 20.6769L17.2522 20.9268C17.4465 20.9318 17.6414 20.9851 17.8084 21.081L17.9329 20.8642ZM17.2586 20.6769V20.4269H17.2514V20.6769V20.9269H17.2586V20.6769ZM17.2514 20.6769V20.4269C16.8341 20.4269 16.4123 20.6031 16.1059 20.9081L16.2823 21.0853L16.4587 21.2625C16.6743 21.0479 16.9703 20.9269 17.2514 20.9269V20.6769ZM16.2823 21.0853L16.1055 20.9085C15.7937 21.2204 15.6223 21.6375 15.6251 22.0789L15.8751 22.0773L16.1251 22.0757C16.1231 21.768 16.2417 21.4795 16.4591 21.2621L16.2823 21.0853ZM15.8751 22.0773L15.6251 22.0761C15.6173 23.7138 14.2848 25.0379 12.6561 25.0379V25.2879V25.5379C14.5606 25.5379 16.116 23.9909 16.1251 22.0785L15.8751 22.0773Z" fill="black"/>
</g>
<path fill-rule="evenodd" clip-rule="evenodd" d="M11.9044 10.4895C10.6477 10.4895 9.62549 11.513 9.62549 12.7696C9.62549 14.0263 10.6477 15.0473 11.9044 15.0473C13.1611 15.0473 14.1833 14.0263 14.1833 12.7696C14.1833 11.513 13.1611 10.4895 11.9044 10.4895ZM11.9044 16.8598C9.64845 16.8598 7.81299 15.0256 7.81299 12.7696C7.81299 10.5137 9.64845 8.677 11.9044 8.677C14.1604 8.677 15.9958 10.5137 15.9958 12.7696C15.9958 15.0256 14.1604 16.8598 11.9044 16.8598Z" fill="black"/>
<path d="M11.9044 10.4895V10.2395C10.5095 10.2395 9.37549 11.3751 9.37549 12.7696H9.62549H9.87549C9.87549 11.6509 10.786 10.7395 11.9044 10.7395V10.4895ZM9.62549 12.7696H9.37549C9.37549 14.1645 10.5098 15.2973 11.9044 15.2973V15.0473V14.7973C10.7856 14.7973 9.87549 13.888 9.87549 12.7696H9.62549ZM11.9044 15.0473V15.2973C13.299 15.2973 14.4333 14.1645 14.4333 12.7696H14.1833H13.9333C13.9333 13.888 13.0232 14.7973 11.9044 14.7973V15.0473ZM14.1833 12.7696H14.4333C14.4333 11.3751 13.2993 10.2395 11.9044 10.2395V10.4895V10.7395C13.0228 10.7395 13.9333 11.6509 13.9333 12.7696H14.1833ZM11.9044 16.8598V16.6098C9.78642 16.6098 8.06299 14.8874 8.06299 12.7696H7.81299H7.56299C7.56299 15.1638 9.51047 17.1098 11.9044 17.1098V16.8598ZM7.81299 12.7696H8.06299C8.06299 10.6516 9.78661 8.927 11.9044 8.927V8.677V8.427C9.51028 8.427 7.56299 10.3757 7.56299 12.7696H7.81299ZM11.9044 8.677V8.927C14.0222 8.927 15.7458 10.6516 15.7458 12.7696H15.9958H16.2458C16.2458 10.3757 14.2985 8.427 11.9044 8.427V8.677ZM15.9958 12.7696H15.7458C15.7458 14.8874 14.0224 16.6098 11.9044 16.6098V16.8598V17.1098C14.2983 17.1098 16.2458 15.1638 16.2458 12.7696H15.9958Z" fill="black"/>
</svg>
